<?xml version="1.0" encoding="UTF-8"?>
<!DOCTYPE svg PUBLIC "-//W3C//DTD SVG 1.1//EN" "http://www.w3.org/Graphics/SVG/1.1/DTD/svg11.dtd">
<!-- Creator: CorelDRAW X8 -->
<svg xmlns="http://www.w3.org/2000/svg" xml:space="preserve" width="167.64mm" height="97.4881mm" version="1.1" style="shape-rendering:geometricPrecision; text-rendering:geometricPrecision; image-rendering:optimizeQuality; fill-rule:evenodd; clip-rule:evenodd"
viewBox="0 0 16924 9842"
 xmlns:xlink="http://www.w3.org/1999/xlink">
 <defs>
  <style type="text/css">
   <![CDATA[
    .fil1 {fill:#FFCC29}
    .fil2 {fill:#CC440A}
    .fil0 {fill:white}
   ]]>
  </style>
 </defs>
 <g id="Capa_x0020_1">
  <metadata id="CorelCorpID_0Corel-Layer"/>
  <path class="fil0" d="M1734 19c74,-11 149,-17 223,-17 5,0 10,0 16,0 10,-1 20,-1 30,-1 87,0 171,28 240,81 54,49 84,118 84,191 0,4 0,7 0,11 0,4 0,9 0,13 0,71 -26,140 -74,192 -74,68 -171,107 -272,107 -7,0 -15,-1 -22,-1 -4,0 -8,0 -12,0 -30,0 -60,-3 -89,-9l0 385 -124 0 0 -952zm125 464c30,7 61,11 92,11 3,0 7,-1 10,-1 151,0 242,-73 242,-205 0,-132 -90,-188 -228,-188 -4,0 -8,0 -11,0 -35,0 -69,3 -103,10l-2 373z"/>
  <path class="fil0" d="M3781 20c72,-12 145,-18 218,-18 6,0 14,0 20,0 13,-1 27,-2 40,-2 86,0 170,28 238,81 48,45 76,108 76,174 0,3 0,5 0,8 0,1 0,2 0,4 0,112 -74,211 -182,242l0 0c79,36 133,110 142,196 16,90 42,179 74,265l-128 0c-28,-74 -50,-150 -64,-228 -28,-133 -80,-182 -192,-187l-114 0 0 417 -128 0 0 -952zm124 438l127 0c133,0 216,-73 216,-182 0,-110 -90,-179 -221,-181 -5,0 -10,0 -15,0 -36,0 -73,4 -108,12l1 351z"/>
  <polygon class="fil0" points="5960,2 5960,964 5835,964 5835,2 "/>
  <path class="fil0" d="M8274 547c-7,-135 -16,-295 -15,-416l0 0c-33,114 -72,228 -120,366l-170 467 -102 0 -156 -456c-46,-135 -84,-260 -114,-374l0 0c0,120 -10,282 -18,426l-26 412 -114 0 66 -970 158 0 164 465c40,114 73,228 97,324l0 0c24,-97 58,-203 102,-324l176 -465 159 0 60 962 -122 0 -25 -417z"/>
  <path class="fil0" d="M10040 667l-100 303 -129 0 327 -968 151 0 328 962 -127 0 -114 -297 -336 0zm315 -95l-93 -279c-22,-63 -37,-120 -51,-177l0 0c-14,57 -29,114 -49,174l-96 282 289 0z"/>
  <path class="fil0" d="M12045 20c72,-12 145,-18 218,-18 6,0 14,0 20,0 13,-1 27,-2 40,-2 86,0 170,28 238,81 48,45 76,108 76,174 0,3 0,5 0,8 0,1 0,2 0,4 0,112 -74,211 -182,242l0 0c79,35 133,109 142,194 16,90 42,179 74,265l-129 0c-28,-74 -50,-151 -64,-228 -28,-134 -80,-183 -193,-187l-114 0 0 417 -124 0 -2 -950zm124 438l127 0c133,0 216,-73 216,-182 0,-110 -90,-179 -221,-181 -5,0 -10,0 -15,0 -36,0 -73,4 -108,12l1 351z"/>
  <polygon class="fil0" points="14224,2 14224,964 14099,964 14099,2 "/>
  <path class="fil0" d="M15883 667l-101 303 -127 0 327 -968 150 0 329 962 -134 0 -102 -303 -342 6zm316 -95l-95 -277c-22,-63 -35,-120 -50,-176l0 0c-15,57 -30,114 -49,175l-96 278 290 0z"/>
  <path class="fil1" d="M7628 5958c0,-2106 -1708,-3814 -3814,-3814 -2106,0 -3814,1708 -3814,3814 0,2107 1708,3814 3814,3814 2106,0 3814,-1707 3814,-3814zm-4373 -2037l-21 0 -1177 638 -177 -698 1482 -792 781 0 0 6773 -888 0 0 -5921z"/>
  <path class="fil2" d="M13112 2146c2105,0 3812,1708 3812,3813 0,2106 -1708,3814 -3814,3814 -2106,0 -3814,-1708 -3814,-3814 0,0 0,0 0,0 0,-2106 1708,-3813 3814,-3813 0,0 2,0 2,0l0 0zm1218 1662l-2472 0 -254 1668c173,-26 349,-40 524,-40 1,0 4,0 5,0 18,0 37,0 56,0 469,0 932,121 1342,350 575,330 930,943 930,1606 0,21 0,42 -1,62 0,1268 -1009,2217 -2417,2217 -709,0 -1308,-200 -1618,-399l220 -669c425,233 902,357 1387,359 829,0 1536,-540 1536,-1406 -10,-839 -570,-1438 -1867,-1438 -300,2 -602,27 -899,69l420 -3116 3106 1 2 736z"/>
  <path class="fil0" d="M8037 6405l-132 400 -170 0 432 -1272 199 0 434 1272 -176 0 -135 -400 -452 0zm417 -132l-124 -366c-28,-83 -47,-158 -66,-228l0 0c-19,75 -40,153 -64,228l-130 366 384 0z"/>
  <rect class="fil0" x="1380" y="1579" width="13938" height="141"/>
 </g>
</svg>
