<svg xmlns="http://www.w3.org/2000/svg" viewBox="0 0 163.77 77.39">
  <defs>
    <style>
      .a {
        fill: #fff;
      }
    </style>
  </defs>
  <title>logo_white</title>
  <g>
    <path class="a" d="M34.1,25.63a7,7,0,0,1-1.66,6.31,10.78,10.78,0,0,1-5.84,3.32l.79,4.15a.32.32,0,0,1-.24.4l-5.26,1.44c-.24.07-.38,0-.43-.25L17.27,21a.3.3,0,0,1,.27-.41,52.68,52.68,0,0,1,6.72-1,12.14,12.14,0,0,1,6.39.86q2.66,1.4,3.44,5.21m-5.19,1.58a2.74,2.74,0,0,0-1.57-2.11,4.3,4.3,0,0,0-2.69-.18l1.11,5.85q3.65-1.09,3.15-3.56"/>
    <path class="a" d="M53.27,34.5a.31.31,0,0,1-.27.39l-5.39,1.34a.37.37,0,0,1-.34-.08l-4.89-4.41.88,4.63a.29.29,0,0,1-.23.4l-5.1,1.4a.31.31,0,0,1-.43-.26l-4-19.18a.36.36,0,0,1,.22-.4A17.19,17.19,0,0,1,38,17.05q5.85-1.2,8.87,1.09a7,7,0,0,1,2.72,4.28,7.54,7.54,0,0,1-.18,3.71,7.89,7.89,0,0,1-1.86,3.24l5.56,4.91a.43.43,0,0,1,.13.21m-9.2-10.06a2.34,2.34,0,0,0-1.29-1.7,3.58,3.58,0,0,0-2.17-.3l1,5.49q2.91-1.1,2.42-3.49"/>
    <path class="a" d="M56.58,14.24l3.33,18.55a.32.32,0,0,1-.27.41l-5,1.1a.33.33,0,0,1-.41-.27L50.7,15.33a.3.3,0,0,1,.25-.4l5.21-1a.32.32,0,0,1,.41.29"/>
    <path class="a" d="M81.55,27.84a.29.29,0,0,1-.23.4l-4.58,1.25a.31.31,0,0,1-.4-.25L73.92,18.52l-.79,10.79a.32.32,0,0,1-.29.31L70,30.2a.29.29,0,0,1-.35-.18l-5-9.61,2,10.8c0,.22,0,.36-.28.39l-4.63.75a.32.32,0,0,1-.41-.29l-3-18.38a.32.32,0,0,1,.29-.41L64,12.2a.3.3,0,0,1,.36.17l5.46,9.49L71.06,11a.31.31,0,0,1,.28-.3l5.35-1.12a.31.31,0,0,1,.41.27Z"/>
    <path class="a" d="M96.37,24.89a.3.3,0,0,1-.27.41L83,28a.3.3,0,0,1-.41-.27L78.81,9a.3.3,0,0,1,.27-.41L92.14,5.95a.3.3,0,0,1,.4.27L93.32,10a.3.3,0,0,1-.27.39l-7.62,1.56.65,3.16,6.06-1.24a.29.29,0,0,1,.39.26l.77,3.76a.29.29,0,0,1-.26.39L87,19.5l.54,2.94,7.68-1.57a.3.3,0,0,1,.4.27Z"/>
    <path class="a" d="M113.46,22.17a.31.31,0,0,1-.27.39l-5.39,1.34a.37.37,0,0,1-.34-.08l-4.89-4.41.88,4.63a.3.3,0,0,1-.23.4l-5.1,1.4a.31.31,0,0,1-.43-.26l-4-19.18a.36.36,0,0,1,.21-.4,17.19,17.19,0,0,1,4.34-1.27q5.86-1.2,8.87,1.09a7,7,0,0,1,2.72,4.28,7.54,7.54,0,0,1-.18,3.71,7.93,7.93,0,0,1-1.86,3.24L113.34,22a.43.43,0,0,1,.13.21m-9.2-10.06a2.34,2.34,0,0,0-1.29-1.7,3.58,3.58,0,0,0-2.17-.3l1,5.49q2.91-1.1,2.42-3.49"/>
    <path class="a" d="M131.53,18.73a.31.31,0,0,1-.27.41l-5.29,1a.33.33,0,0,1-.4-.21l-1.38-3.51-4.33.89v3.3a.33.33,0,0,1-.28.35L114.3,22a.3.3,0,0,1-.41-.27l0-.08.51-19.63a.31.31,0,0,1,.26-.35L122.92,0a.31.31,0,0,1,.38.22Zm-9-6.58-2.6-6.5,0,7Z"/>
    <path class="a" d="M11.11,39.54l6.29,35a.61.61,0,0,1-.51.77L7.51,77.37a.62.62,0,0,1-.77-.51L0,41.59a.56.56,0,0,1,.48-.76L10.33,39a.61.61,0,0,1,.78.56"/>
    <path class="a" d="M36,45.58l4.79,24.5a.38.38,0,0,1-.33.5L34.2,72.13a.4.4,0,0,1-.46-.17l-9.66-13,2.7,14c.05.26-.06.43-.34.5L20.39,75c-.32.08-.51,0-.57-.33L14.77,49.94c-.07-.32,0-.5.35-.55l6.58-1.31a.41.41,0,0,1,.43.17l9.63,13-2.9-14.15c-.07-.32,0-.5.33-.55l6.35-1.26a.39.39,0,0,1,.51.34"/>
    <path class="a" d="M55.83,41.61l1,5c.06.3-.06.47-.38.52L46.38,49.07l.78,4.19,8-1.57a.38.38,0,0,1,.52.34l1,5c.06.3-.06.47-.38.52l-8.06,1.58,1.83,9.28a.39.39,0,0,1-.34.52L43,70.25a.4.4,0,0,1-.54-.36L37.58,45.16a.41.41,0,0,1,.36-.54L55.3,41.23q.43-.09.52.38"/>
    <path class="a" d="M80.6,62.63a.4.4,0,0,1-.35.54l-7,1.32a.44.44,0,0,1-.52-.28l-1.83-4.65-5.73,1.17,0,4.37a.44.44,0,0,1-.37.47L57.8,67a.4.4,0,0,1-.54-.35l0-.11.67-26a.41.41,0,0,1,.35-.46L69.2,37.86a.41.41,0,0,1,.5.29Zm-12-8.71-3.43-8.59,0,9.31Z"/>
    <path class="a" d="M97.42,33l4.79,24.5a.38.38,0,0,1-.33.49l-6.3,1.55a.4.4,0,0,1-.46-.17l-9.66-13,2.7,14c.05.26-.06.43-.34.5l-6.05,1.5c-.32.08-.51,0-.57-.33L76.14,37.37c-.07-.32,0-.5.35-.55l6.58-1.31a.41.41,0,0,1,.43.17l9.63,13-2.9-14.15c-.07-.32,0-.51.33-.55l6.35-1.26a.39.39,0,0,1,.51.34"/>
    <path class="a" d="M125.46,50.32a.52.52,0,0,1,0,.33,8.47,8.47,0,0,1-3.48,3.06,16.34,16.34,0,0,1-4.42,1.59,14,14,0,0,1-10.38-1.45,12.72,12.72,0,0,1-5.8-8.8q-1.49-7.3,2.78-12.23,3.88-4.48,11.49-6c.61-.12,1-.07,1,.16l2.43,6.68q.17.45-.39.56l-.81.13-.81.13a12.53,12.53,0,0,0-6.18,2.86A6.3,6.3,0,0,0,109,43.55a5.32,5.32,0,0,0,2.59,3.84,6.78,6.78,0,0,0,4.69.47,12.47,12.47,0,0,0,6-3.44.6.6,0,0,1,.25-.16.4.4,0,0,1,.5.27Z"/>
    <path class="a" d="M130.37,26.19l4.41,24.54a.42.42,0,0,1-.35.54l-6.58,1.46a.43.43,0,0,1-.54-.35L122.6,27.64a.39.39,0,0,1,.34-.53l6.89-1.3a.43.43,0,0,1,.55.39"/>
    <path class="a" d="M163.76,45.51a.48.48,0,0,1-.42.64L155,47.73a.52.52,0,0,1-.62-.34l-2.17-5.53-6.82,1.4,0,5.2A.52.52,0,0,1,145,49l-8.35,1.71a.48.48,0,0,1-.64-.42l0-.13.8-30.9a.49.49,0,0,1,.42-.55l13-2.67a.49.49,0,0,1,.6.34ZM149.53,35.15l-4.09-10.23L145.38,36Z"/>
  </g>
</svg>
