<svg xmlns="http://www.w3.org/2000/svg" viewBox="0 0 148.43 85.79">
  <defs>
    <style>
      .a {
        fill: #3aaa35;
      }
    </style>
  </defs>
  <title>logo_verde</title>
  <g>
    <g>
      <path class="a" d="M12,.13h1.73q2,0,2,2.52a3,3,0,0,1-.26,1.43,1.65,1.65,0,0,1-.93.7,2,2,0,0,1,1,.78A2.78,2.78,0,0,1,15.88,7q0,2.6-2.23,2.6H12Zm1.2,4.16a1.29,1.29,0,0,0,1-.34,2.09,2.09,0,0,0,.29-1.27q0-1.53-1.1-1.53h-.21Zm0,4.2a1.41,1.41,0,0,0,1.08-.34,1.86,1.86,0,0,0,.3-1.22,2,2,0,0,0-.31-1.27,1.33,1.33,0,0,0-1.07-.37Z"/>
      <path class="a" d="M24.8.13h1l2,9.45H26.55L26.2,7.74H24.32L24,9.58H22.74ZM26,6.75l-.28-1.51Q25.45,3.71,25.27,2q-.08.85-.22,1.72t-.32,1.85L24.5,6.75Z"/>
      <path class="a" d="M38.45.28V1.43a2,2,0,0,0-.82-.24,1.34,1.34,0,0,0-.78.22,1.63,1.63,0,0,0-.54.69A4.34,4.34,0,0,0,36,3.28,12,12,0,0,0,35.9,5q0,3.5,1.79,3.5a1.92,1.92,0,0,0,.75-.2V9.44a2.07,2.07,0,0,1-1,.26q-2.87,0-2.87-4.69a7.88,7.88,0,0,1,.7-3.77A2.31,2.31,0,0,1,37.4,0,2.19,2.19,0,0,1,38.45.28Z"/>
      <path class="a" d="M45.79.13h1.27v3.7h1.87V.13H50.2V9.58H48.93V4.9H47.06V9.58H45.79Z"/>
      <path class="a" d="M57.92.13h1.27V9.58H57.92Z"/>
      <path class="a" d="M66.92.13h1.27V8.5h2.08V9.58H66.92Z"/>
      <path class="a" d="M77.33.13h1.27V8.5h2.08V9.58H77.33Z"/>
      <path class="a" d="M87.75.13h3.38V1.21H89v3H90.9V5.28H89V8.5h2.11V9.58H87.75Z"/>
      <path class="a" d="M98.57.13h1.68a2.14,2.14,0,0,1,1.55.5,2.67,2.67,0,0,1,.64,2,3.37,3.37,0,0,1-.34,1.63,1.46,1.46,0,0,1-1,.76l1.74,4.6h-1.29L99.84,5V9.58H98.57Zm1.27,4.19a1.35,1.35,0,0,0,1-.34,1.74,1.74,0,0,0,.3-1.16,3.86,3.86,0,0,0-.06-.75,1.36,1.36,0,0,0-.2-.51.82.82,0,0,0-.36-.29,1.31,1.31,0,0,0-.52-.09h-.21Z"/>
      <path class="a" d="M111.46.13h1l2,9.45h-1.26l-.35-1.84H111l-.36,1.84h-1.22Zm1.22,6.62-.28-1.51q-.28-1.54-.46-3.28-.08.85-.22,1.72t-.32,1.85l-.23,1.21Z"/>
      <path class="a" d="M120.54.13h4.14V1.24h-1.43V9.58H122V1.24h-1.47Z"/>
      <path class="a" d="M136.47,5.08a8.17,8.17,0,0,1-.56,3.56A1.94,1.94,0,0,1,134,9.69a2,2,0,0,1-1.94-1.13,9.66,9.66,0,0,1-.56-3.94,8.26,8.26,0,0,1,.55-3.57A2,2,0,0,1,134,0a2,2,0,0,1,1.76.81,3.86,3.86,0,0,1,.55,1.55A16.09,16.09,0,0,1,136.47,5.08Zm-1.33.13A15.15,15.15,0,0,0,134.91,2q-.22-.81-.9-.81a.9.9,0,0,0-.91.74,12.89,12.89,0,0,0-.22,3,11.85,11.85,0,0,0,.23,2.88.91.91,0,0,0,.89.76.89.89,0,0,0,.88-.71A9.39,9.39,0,0,0,135.13,5.22Z"/>
    </g>
    <g>
      <path class="a" d="M47.11,38.15a9.72,9.72,0,0,0-2.77,3.23,18,18,0,0,0-1.79,5,32.4,32.4,0,0,0,0,12.72,18.54,18.54,0,0,0,1.79,5,9.61,9.61,0,0,0,2.77,3.26,6.27,6.27,0,0,0,7.26,0,9.15,9.15,0,0,0,2.77-3.26,19.42,19.42,0,0,0,1.75-5,32.4,32.4,0,0,0,0-12.72,18.82,18.82,0,0,0-1.75-5,9.23,9.23,0,0,0-2.77-3.23,6.27,6.27,0,0,0-7.26,0Z"/>
      <path class="a" d="M50.76,80.67a20.45,20.45,0,0,1-9.08-2A20.71,20.71,0,0,1,34.6,73,26.85,26.85,0,0,1,30,64.16,37.5,37.5,0,0,1,28.32,52.7,37.51,37.51,0,0,1,30,41.24a26.45,26.45,0,0,1,4.63-8.8,20.88,20.88,0,0,1,7.08-5.64,20.45,20.45,0,0,1,9.08-2c.6,0,1.2,0,1.78.08a33.43,33.43,0,0,0-40.14,1.47H27.69V79.2H14V38H6.24V32.89a33.45,33.45,0,0,0,45,47.77Z"/>
    </g>
    <path class="a" d="M125,46.16h-8.22V33.76h22.87V75a33.45,33.45,0,1,0-42.3,5.8V46.16H89.11V33.76H112V85.65c1,.09,2,.14,3,.14a33.44,33.44,0,0,0,10-1.52Z"/>
    <path class="a" d="M73.38,57.59H68.74L68,59.76H64.54l4.75-12.48h3.54l4.75,12.48H74.12Zm-.86-2.47L71.06,51,69.6,55.13Z"/>
    <rect class="a" x="12.1" y="13.92" width="122.24" height="1.24"/>
  </g>
</svg>
