<svg xmlns="http://www.w3.org/2000/svg" viewBox="0 0 148.43 85.79">
  <defs>
    <style>
      .a {
        fill: #701647;
      }
    </style>
  </defs>
  <title>logo_color</title>
  <g>
    <g>
      <path class="a" d="M12,.13h1.73q2,0,2,2.52a3,3,0,0,1-.26,1.43,1.64,1.64,0,0,1-.93.7,2,2,0,0,1,1,.78A2.78,2.78,0,0,1,15.88,7q0,2.6-2.23,2.6H12Zm1.2,4.16a1.29,1.29,0,0,0,1-.34,2.09,2.09,0,0,0,.29-1.27q0-1.53-1.1-1.53h-.21Zm0,4.2a1.41,1.41,0,0,0,1.08-.34,1.86,1.86,0,0,0,.3-1.22,2,2,0,0,0-.31-1.27,1.33,1.33,0,0,0-1.07-.37Z"/>
      <path class="a" d="M24.8.13h1l2,9.45H26.55L26.2,7.74H24.32L24,9.58H22.74ZM26,6.75l-.28-1.51Q25.45,3.71,25.27,2q-.08.85-.22,1.72t-.32,1.85L24.5,6.75Z"/>
      <path class="a" d="M38.45.28V1.43a2,2,0,0,0-.82-.24,1.34,1.34,0,0,0-.78.22,1.62,1.62,0,0,0-.54.69A4.37,4.37,0,0,0,36,3.28,12.21,12.21,0,0,0,35.9,5q0,3.5,1.79,3.5a1.92,1.92,0,0,0,.75-.2V9.44a2.08,2.08,0,0,1-1,.26q-2.87,0-2.87-4.69a7.88,7.88,0,0,1,.7-3.77A2.31,2.31,0,0,1,37.4,0,2.2,2.2,0,0,1,38.45.28Z"/>
      <path class="a" d="M45.79.13h1.27v3.7h1.87V.13H50.2V9.58H48.93V4.9H47.06V9.58H45.79Z"/>
      <path class="a" d="M57.92.13h1.27V9.58H57.92Z"/>
      <path class="a" d="M66.92.13h1.27V8.5h2.08V9.58H66.92Z"/>
      <path class="a" d="M77.33.13h1.27V8.5h2.08V9.58H77.33Z"/>
      <path class="a" d="M87.75.13h3.38V1.21H89v3H90.9V5.28H89V8.5h2.11V9.58H87.75Z"/>
      <path class="a" d="M98.57.13h1.68a2.14,2.14,0,0,1,1.55.5,2.67,2.67,0,0,1,.64,2,3.37,3.37,0,0,1-.34,1.63,1.46,1.46,0,0,1-1,.76l1.74,4.6h-1.29L99.84,5V9.58H98.57Zm1.27,4.19a1.35,1.35,0,0,0,1-.34,1.73,1.73,0,0,0,.31-1.16,3.86,3.86,0,0,0-.06-.75,1.36,1.36,0,0,0-.2-.51.82.82,0,0,0-.36-.29,1.32,1.32,0,0,0-.52-.09h-.21Z"/>
      <path class="a" d="M111.46.13h1l2,9.45h-1.26l-.35-1.84H111l-.36,1.84h-1.22Zm1.22,6.62-.28-1.51q-.28-1.54-.46-3.28-.08.85-.22,1.72t-.32,1.85l-.23,1.21Z"/>
      <path class="a" d="M120.54.13h4.14V1.24h-1.43V9.58H122V1.24h-1.47Z"/>
      <path class="a" d="M136.47,5.08a8.17,8.17,0,0,1-.56,3.56A1.94,1.94,0,0,1,134,9.69a2,2,0,0,1-1.94-1.13,9.66,9.66,0,0,1-.56-3.94,8.26,8.26,0,0,1,.55-3.57A2,2,0,0,1,134,0a2,2,0,0,1,1.76.81,3.86,3.86,0,0,1,.55,1.55A16.11,16.11,0,0,1,136.47,5.08Zm-1.33.13A15.07,15.07,0,0,0,134.91,2q-.22-.81-.9-.81a.9.9,0,0,0-.91.74,12.87,12.87,0,0,0-.22,3,11.9,11.9,0,0,0,.23,2.88.91.91,0,0,0,.89.76.89.89,0,0,0,.88-.71A9.43,9.43,0,0,0,135.13,5.22Z"/>
    </g>
    <g>
      <path class="a" d="M33.72,46.59h.37a13.85,13.85,0,0,1,4.2-1.87,15.54,15.54,0,0,1,2.92-.32,22,22,0,0,1,9.23,1.92,22.88,22.88,0,0,1,7.31,5.25,24.2,24.2,0,0,1,4.84,7.81,25.59,25.59,0,0,1,1.52,6.31A33.45,33.45,0,0,0,52.59,24.9Z"/>
      <path class="a" d="M5.94,69.53a35.6,35.6,0,0,1,2.6-12.66,48.65,48.65,0,0,1,8-13.39l16-19.37H51.4A33.45,33.45,0,0,0,6,71.47C6,70.83,5.94,70.19,5.94,69.53Z"/>
      <path class="a" d="M30.66,79.86a11.2,11.2,0,0,0,8.86,0,11.83,11.83,0,0,0,6.08-6.08,11.2,11.2,0,0,0,0-8.86,11.84,11.84,0,0,0-6.08-6.08,11.2,11.2,0,0,0-8.86,0,11.83,11.83,0,0,0-6.08,6.08,11.2,11.2,0,0,0,0,8.86,11.82,11.82,0,0,0,6.08,6.08Z"/>
    </g>
    <g>
      <path class="a" d="M113.83,47a11.34,11.34,0,0,0,3.46,2.37,10.74,10.74,0,0,0,8.5,0,11.35,11.35,0,0,0,5.82-5.82,10.74,10.74,0,0,0,0-8.5,11.35,11.35,0,0,0-5.82-5.82,10.74,10.74,0,0,0-8.5,0,11.35,11.35,0,0,0-5.82,5.82,10.74,10.74,0,0,0,0,8.5A11.34,11.34,0,0,0,113.83,47Z"/>
      <path class="a" d="M147,51.26a46.65,46.65,0,0,1-7.66,12.83L124,82.66H104.11l18.74-21.55h-.35a13.21,13.21,0,0,1-4,1.79,14.73,14.73,0,0,1-2.8.31,21.27,21.27,0,0,1-15.9-6.87,23.49,23.49,0,0,1-4.6-7.49,25.21,25.21,0,0,1-1.66-9.2,24.59,24.59,0,0,1,1.93-9.77A22.94,22.94,0,0,1,101,22l.15-.12a33.48,33.48,0,1,0,47,26C147.8,49,147.42,50.1,147,51.26Z"/>
    </g>
    <path class="a" d="M76.38,57.59H71.74L71,59.76H67.54l4.75-12.48h3.54l4.75,12.48H77.12Zm-.86-2.47L74.06,51,72.6,55.13Z"/>
    <rect class="a" x="12.1" y="13.92" width="122.24" height="1.24"/>
  </g>
</svg>
