<?xml version="1.0" encoding="UTF-8"?>
<!DOCTYPE svg PUBLIC "-//W3C//DTD SVG 1.1//EN" "http://www.w3.org/Graphics/SVG/1.1/DTD/svg11.dtd">
<!-- Creator: CorelDRAW X8 -->
<svg xmlns="http://www.w3.org/2000/svg" xml:space="preserve" width="20.32mm" height="20.574mm" version="1.1" style="shape-rendering:geometricPrecision; text-rendering:geometricPrecision; image-rendering:optimizeQuality; fill-rule:evenodd; clip-rule:evenodd"
viewBox="0 0 484 491"
 xmlns:xlink="http://www.w3.org/1999/xlink">
 <defs>
  <style type="text/css">
   <![CDATA[
    .fil0 {fill:#FEFEFE}
   ]]>
  </style>
 </defs>
 <g id="Capa_x0020_1">
  <metadata id="CorelCorpID_0Corel-Layer"/>
  <path class="fil0" d="M242 0c134,0 242,110 242,245 0,136 -108,246 -242,246 -134,0 -242,-110 -242,-246 0,-135 108,-245 242,-245zm105 112c76,0 137,61 137,136 0,75 -61,136 -137,136 -76,0 -138,-61 -138,-136 0,-75 62,-136 138,-136zm2 66c39,0 71,31 71,70 0,39 -32,70 -71,70 -39,0 -71,-31 -71,-70 0,-39 32,-70 71,-70zm-210 -66c21,0 41,5 59,14l-1 79c-27,-29 -52,-34 -83,-23 -27,11 -42,31 -44,66 3,36 19,58 49,68 33,9 57,-2 78,-24l1 78c0,4 -38,14 -59,14 -75,0 -135,-61 -135,-136 0,-75 60,-136 135,-136z"/>
 </g>
</svg>
